# AST/ASF file generated using VICON BodyLanguage
# -----------------------------------------------
:version 1.10
:name VICON
:units
  mass 1.0
  length 0.45
  angle deg
:documentation
   .ast/.asf automatically generated from VICON data using
   VICON BodyBuilder and BodyLanguage model FoxedUp or BRILLIANT.MOD
:root
   order TX TY TZ RX RY RZ
   axis XYZ
   position 0 0 0  
   orientation 0 0 0 
:bonedata
  begin
     id 1 
     name lhipjoint
     direction 0.602128 -0.715006 0.355257 
     length 2.21237 
     axis 0 0 0  XYZ
  end
  begin
     id 2 
     name lfemur
     direction 0.34202 -0.939693 0  
     length 6.71649  
     axis 0 0 20  XYZ
    dof rx ry rz
    limits (-160.0 20.0)
           (-70.0 70.0)
           (-60.0 70.0)
  end
  begin
     id 3 
     name ltibia
     direction 0.34202 -0.939693 0   
     length 6.97123   
     axis 0 0 20   XYZ
    dof rx
    limits (-10.0 170.0)
  end
  begin
     id 4 
     name lfoot
     direction 0.0655697 -0.180151 0.981451   
     length 1.80924   
     axis -90 7.62852e-016 20   XYZ
    dof rx rz
    limits (-45.0 90.0)
           (-70.0 20.0)
  end
  begin
     id 5 
     name ltoes
     direction 1.53545e-011 -4.21827e-011 1   
     length 0.916331   
     axis -90 7.62852e-016 20   XYZ
    dof rx
    limits (-90.0 20.0)
  end
  begin
     id 6 
     name rhipjoint
     direction -0.625414 -0.698792 0.347201   
     length 2.2637  
     axis 0 0 0  XYZ 
  end
  begin
     id 7 
     name rfemur
     direction -0.34202 -0.939693 0   
     length 7.07595   
     axis 0 0 -20   XYZ
    dof rx ry rz
    limits (-160.0 20.0)
           (-70.0 70.0)
           (-70.0 60.0)
  end
  begin
     id 8 
     name rtibia
     direction -0.34202 -0.939693 0   
     length 7.22924   
     axis 0 0 -20   XYZ
    dof rx
    limits (-10.0 170.0)
 end
 begin
     id 9 
     name rfoot
     direction -0.0766747 -0.210662 0.974547   
     length 1.98482  
     axis -90 -7.62852e-016 -20   XYZ
    dof rx rz
    limits (-45.0 90.0)
           (-20.0 70.0)
  end
  begin
     id 10 
     name rtoes
     direction -1.53532e-011 -4.21867e-011 1   
     length 0.999842   
     axis -90 -7.62852e-016 -20   XYZ
    dof rx
    limits (-90.0 20.0)
  end
  begin
     id 11 
     name lowerback
     direction -0.0224668 0.997354 -0.0691422   
     length 2.09945   
     axis 0 0 0   XYZ
    dof rx ry rz
    limits (-20.0 45.0)
           (-30.0 30.0)
           (-30.0 30.0)
  end
  begin
     id 12 
     name upperback
     direction 0.0134698 0.998451 -0.0539888   
     length 2.09758   
     axis 0 0 0   XYZ
    dof rx ry rz
    limits (-20.0 45.0)
           (-30.0 30.0)
           (-30.0 30.0)
  end
  begin
     id 13 
     name thorax
     direction 0.0241905 0.99948 -0.0213333   
     length 2.10428   
     axis 0 0 0   XYZ
    dof rx ry rz
    limits (-20.0 45.0)
           (-30.0 30.0)
           (-30.0 30.0)
  end
  begin
     id 14 
     name lowerneck
     direction -0.00866847 0.995978 0.0891737   
     length 1.3959   
     axis 0 0 0   XYZ
    dof rx ry rz
    limits (-20.0 45.0)
           (-30.0 30.0)
           (-30.0 30.0)
  end
  begin
     id 15 
     name upperneck
     direction 0.0680679 0.992203 0.104404   
     length 1.39452   
     axis 0 0 0   XYZ
    dof rx ry rz
    limits (-20.0 45.0)
           (-30.0 30.0)
           (-30.0 30.0)
  end
  begin
     id 16
     name head
     direction 0.0242216 0.999358 0.0264054  
     length 1.40433  
     axis 0 0 0   XYZ
    dof rx ry rz
    limits (-20.0 45.0)
           (-30.0 30.0)
           (-30.0 30.0)
  end
  begin
     id 17 
     name lclavicle
     direction 0.929368 0.362991 -0.0671771  
     length 3.04887  
     axis 0 0 0   XYZ
    dof ry rz
    limits (-20.0 10.0)
           (0.0 20.0)
  end
  begin
     id 18 
     name lhumerus
     direction 1 -4.48967e-011 -7.13741e-028   
     length 4.77195   
     axis -180 -30 -90   XYZ
    dof rx ry rz
    limits (-60.0 90.0)
           (-90.0 90.0)
           (-90.0 90.0)
  end
  begin
     id 19
     name lradius
     direction 1 -4.48977e-011 3.60404e-027   
     length 2.98444   
     axis -180 -30 -90   XYZ
    dof rx
    limits (-10.0 170.0)
  end
  begin
     id 20
     name lwrist
     direction 1 -4.48997e-011 7.54877e-027   
     length 1.49222   
     axis -7.18178e-015 90 90   XYZ
    dof ry
    limits (-180.0 0.0)
 end
  begin
     id 21 
     name lhand
     direction 1 -4.489e-011 1.51105e-026   
     length 0.992285   
     axis -9.63605e-015 90 90   XYZ
    dof rx rz
    limits (-90.0 90.0)
           (-45.0 45.0)
  end
  begin
     id 22 
     name lfingers
     direction 1 -4.48998e-011 3.01948e-026   
     length 0.800006   
     axis -1.92718e-014 90 90   XYZ
    dof rx
    limits (0.0 90.0)
  end
  begin
     id 23
     name lthumb
     direction 0.707107 -6.34881e-011 0.707107   
     length 1.14865   
     axis -90 45 -3.53137e-014   XYZ
    dof rx rz
    limits (-45.0 45.0)
           (-45.0 45.0)
  end
  begin
     id 24 
     name rclavicle
     direction -0.945672 0.324529 0.0196374   
     length 3.4236  
     axis 0 0 0   XYZ 
    dof ry rz
    limits (-10.0 20.0)
           (-20.0 0.0)
  end
  begin
     id 25 
     name rhumerus
     direction -1 -4.4896e-011 1.02757e-029  
     length 4.62052   
     axis -180 30 90   XYZ
    dof rx ry rz
    limits (-90.0 60.0)
           (-90.0 90.0)
           (-90.0 90.0)
  end
  begin
     id 26 
     name rradius
     direction -1 -4.48982e-011 3.85962e-027   
     length 2.95332   
     axis -180 30 90   XYZ
    dof rx
    limits (-10.0 170.0)
  end
  begin
     id 27 
     name rwrist
     direction -1 -4.48961e-011 7.55118e-027   
     length 1.47666   
     axis -7.18178e-015 -90 -90   XYZ
    dof ry
    limits (-180.0 0.0)
  end
  begin
     id 28
     name rhand
     direction -1 -4.48984e-011 1.50994e-026   
     length 0.990956   
     axis -9.63605e-015 -90 -90   XYZ
    dof rx rz
    limits (-90.0 90.0)
           (-45.0 45.0)
  end
  begin
     id 29
     name rfingers
     direction -1 -4.4892e-011 3.02158e-026   
     length 0.798934   
     axis -1.92718e-014 -90 -90   XYZ
    dof rx
    limits (0.0 90.0)
  end
  begin
     id 30
     name rthumb
     direction -0.707107 -6.34916e-011 0.707107   
     length 1.14711   
     axis -90 -45 3.53137e-014   XYZ
    dof rx rz
    limits (-45.0 45.0)
           (-45.0 45.0)
  end
:hierarchy
  begin
    root lhipjoint rhipjoint lowerback
    lhipjoint lfemur
    lfemur ltibia
    ltibia lfoot
    lfoot ltoes
    rhipjoint rfemur
    rfemur rtibia
    rtibia rfoot
    rfoot rtoes
    lowerback upperback
    upperback thorax
    thorax lowerneck lclavicle rclavicle
    lowerneck upperneck
    upperneck head
    lclavicle lhumerus
    lhumerus lradius
    lradius lwrist
    lwrist lhand lthumb
    lhand lfingers
    rclavicle rhumerus
    rhumerus rradius
    rradius rwrist
    rwrist rhand rthumb
    rhand rfingers
  end

#!OML:ASF H:\ManfredObstacles\Project 1\Capture day 1\Session 1\Male.ASF
:FULLY-SPECIFIED
:DEGREES
182
root -2.39979 15.9142 33.3699 -173.152 -11.8733 -181.601
lowerback -10.5859 -4.04411 -5.3395
upperback 1.63307 -4.72947 0.422521
thorax 8.16365 -2.55996 2.60279
lowerneck 2.75572 -2.6219 -6.45178
upperneck -8.60382 -3.39871 10.2506
head -2.6913 -2.01112 4.27132
rclavicle 7.89051e-014 -3.8763e-015
rhumerus -47.7912 -33.2301 -62.9897
rradius 21.218
rwrist 44.093
rhand 0.356571 -6.25451
rfingers 7.12502
rthumb 25.9319 -34.5057
lclavicle 7.89051e-014 -3.8763e-015
lhumerus -32.1818 26.4858 74.7463
lradius 13.6755
lwrist -43.7224
lhand -7.90895 7.17539
lfingers 7.12502
lthumb 17.9964 36.3628
rfemur -33.0899 -2.11004 13.29
rtibia 23.5543
rfoot -4.02201 2.88166
rtoes 11.1779
lfemur 3.57258 -2.99657 -21.8062
ltibia 8.32416
lfoot -3.98528 -18.8442
ltoes 27.6047
183
root -2.37106 15.9123 33.2161 -172.945 -11.3788 -181.357
lowerback -10.7585 -3.92797 -4.9469
upperback 1.42338 -4.62462 0.459199
thorax 7.99466 -2.48583 2.44097
lowerneck 2.70419 -2.52569 -6.60165
upperneck -8.44686 -3.27312 10.3279
head -2.64268 -1.9416 4.31325
rclavicle -1.39398e-014 6.16232e-015
rhumerus -47.6902 -33.1812 -62.9905
rradius 21.2069
rwrist 44.089
rhand 0.451787 -6.38027
rfingers 7.12502
rthumb 26.023 -34.6181
lclavicle -1.39398e-014 6.16232e-015
lhumerus -33.5003 29.8217 72.1977
lradius 12.9303
lwrist -46.9199
lhand -8.01981 7.41531
lfingers 7.12502
lthumb 17.8898 36.6125
rfemur -33.6171 -2.85178 14.24
rtibia 24.4685
rfoot -2.76398 3.66084
rtoes 11.4291
lfemur 5.16136 -2.70977 -21.3435
ltibia 5.80898
lfoot -3.30329 -18.2996
ltoes 27.7475
184
root -2.34216 15.9099 33.0708 -172.831 -10.7889 -180.801
lowerback -10.8785 -3.75277 -4.29729
upperback 1.31444 -4.48391 0.609154
thorax 7.89159 -2.38893 2.26174
lowerneck 2.64045 -2.4299 -6.62094
upperneck -8.50427 -3.14478 10.2973
head -2.66058 -1.87719 4.30459
rclavicle 5.48521e-015 1.45113e-014
rhumerus -47.3088 -33.0765 -63.183
rradius 21.2747
rwrist 43.7357
rhand 0.615493 -6.5792
rfingers 7.12502
rthumb 26.1798 -34.7939
lclavicle 5.48521e-015 1.45113e-014
lhumerus -35.0418 33.6182 69.274
lradius 12.2295
lwrist -50.6779
lhand -8.15073 7.53052
lfingers 7.12502
lthumb 17.7638 36.7391
rfemur -34.0567 -2.96914 15.3537
rtibia 25.4114
rfoot -2.40328 4.32725
rtoes 8.98138
lfemur 8.49016 -2.30611 -20.58
ltibia -9.54166e-015
lfoot -1.38225 -16.8746
ltoes 26.5721
185
root -2.31584 15.9161 32.9311 -172.681 -10.2246 -180.259
lowerback -11.0767 -3.59986 -3.70649
upperback 1.28487 -4.36576 0.798477
thorax 7.93152 -2.30999 2.14447
lowerneck 2.61366 -2.32596 -6.51588
upperneck -8.71557 -3.00717 10.0711
head -2.73709 -1.80807 4.21857
rclavicle -1.03803e-014 2.98177e-015
rhumerus -46.7752 -32.8434 -63.5276
rradius 21.5504
rwrist 43.2123
rhand 0.642437 -6.55446
rfingers 7.12502
rthumb 26.2056 -34.7654
lclavicle -1.03803e-014 2.98177e-015
lhumerus -36.4643 36.4796 66.8841
lradius 11.7658
lwrist -53.3449
lhand -8.41819 7.64174
lfingers 7.12502
lthumb 17.5064 36.8735
rfemur -34.3965 -2.68005 16.237
rtibia 26.3202
rfoot -2.75624 5.00196
rtoes 8.42845
lfemur 8.77916 -1.90859 -19.9025
ltibia -4.45278e-014
lfoot -1.57741 -16.5892
ltoes 26.3202
186
root -2.29592 15.9168 32.7969 -172.535 -9.82186 -179.804
lowerback -11.1668 -3.53792 -3.14344
upperback 1.25742 -4.37215 0.980882
thorax 7.92381 -2.29293 2.01776
lowerneck 2.4998 -2.18234 -6.52027
upperneck -8.92002 -2.81758 9.92289
head -2.79782 -1.71233 4.17189
rclavicle 3.78312e-015 -1.59028e-015
rhumerus -46.0682 -32.0941 -64.2766
rradius 22.1102
rwrist 42.3157
rhand 0.821633 -6.46632
rfingers 7.12502
rthumb 26.3771 -34.6516
lclavicle 3.78312e-015 -1.59028e-015
lhumerus -37.7342 38.4768 65.0744
lradius 11.5406
lwrist -54.9936
lhand -8.39747 8.05612
lfingers 7.12502
lthumb 17.5264 37.2861
rfemur -34.5961 -2.72389 17.0198
rtibia 27.1598
rfoot -3.27792 5.94009
rtoes 8.85368
lfemur 9.15658 -1.6757 -19.3433
ltibia -1.90833e-014
lfoot -1.8292 -16.3276
ltoes 25.8585
187
root -2.26973 15.9176 32.6798 -172.451 -9.56579 -179.686
lowerback -10.8009 -3.58224 -3.02281
upperback 1.18756 -4.47023 1.12275
thorax 7.6483 -2.33727 2.10564
lowerneck 2.24838 -2.47689 -6.5747
upperneck -8.92807 -2.56083 9.78951
head -2.7721 -1.28685 4.11535
rclavicle -2.86064e-014 8.39865e-015
rhumerus -45.2588 -30.9801 -65.2098
rradius 22.7283
rwrist 41.2127
rhand 1.01114 -6.5272
rfingers 7.12502
rthumb 26.5585 -34.6852
lclavicle -2.86064e-014 8.39865e-015
lhumerus -39.2349 40.7049 62.9863
lradius 11.263
lwrist -57.1747
lhand -8.25899 8.04683
lfingers 7.12502
lthumb 17.6596 37.2649
rfemur -34.6591 -2.73883 17.3979
rtibia 27.8748
rfoot -3.8418 6.53866
rtoes 8.75926
lfemur 9.51951 -1.62733 -19.1333
ltibia 3.18055e-015
lfoot -2.12854 -16.0043
ltoes 24.9795
188
root -2.24276 15.9241 32.5615 -172.269 -9.50281 -179.321
lowerback -10.6527 -3.62378 -2.63005
upperback 1.11844 -4.59744 1.30471
thorax 7.48119 -2.38695 2.06637
lowerneck 2.06092 -2.35283 -6.5719
upperneck -9.00233 -2.38206 9.6652
head -2.78005 -1.18697 4.0711
rclavicle 1.39056e-014 -1.06598e-014
rhumerus -44.5331 -30.0364 -66.0029
rradius 23.2604
rwrist 40.2812
rhand 0.889951 -6.37053
rfingers 7.12502
rthumb 26.4425 -34.546
lclavicle 1.39056e-014 -1.06598e-014
lhumerus -40.1864 42.0189 61.6239
lradius 10.9633
lwrist -58.7198
lhand -8.18093 7.72136
lfingers 7.12502
lthumb 17.7347 36.9326
rfemur -34.797 -2.88477 18.0808
rtibia 28.4766
rfoot -4.45185 7.03719
rtoes 9.03635
lfemur 9.70068 -1.73543 -18.6424
ltibia -3.49861e-014
lfoot -2.45736 -15.6357
ltoes 23.9945
189
root -2.21857 15.9327 32.4463 -171.968 -9.54881 -178.94
lowerback -10.6943 -3.63336 -2.1398
upperback 1.06407 -4.68636 1.43334
thorax 7.42233 -2.41401 1.91176
lowerneck 1.98542 -2.26124 -6.51093
upperneck -9.16486 -2.22697 9.66275
head -2.82918 -1.10534 4.05806
rclavicle -4.25221e-014 -9.31803e-016
rhumerus -43.779 -29.1288 -66.8745
rradius 23.8233
rwrist 39.051
rhand 0.806858 -6.29148
rfingers 7.12502
rthumb 26.363 -34.4789
lclavicle -4.25221e-014 -9.31803e-016
lhumerus -39.9597 41.8789 61.787
lradius 10.7491
lwrist -58.9136
lhand -7.98093 7.7616
lfingers 7.12502
lthumb 17.9272 36.9553
rfemur -34.9719 -3.25297 18.8128
rtibia 28.8759
rfoot -4.94639 7.63137
rtoes 10.153
lfemur 9.75499 -1.9399 -18.1456
ltibia -4.13472e-014
lfoot -2.85727 -15.297
ltoes 22.5466
190
root -2.19654 15.9428 32.3376 -171.604 -9.69114 -178.793
lowerback -10.7212 -3.67705 -1.9283
upperback 1.00361 -4.78202 1.53438
thorax 7.36942 -2.45508 1.88351
lowerneck 1.91799 -2.23019 -6.29715
upperneck -9.31228 -2.17284 9.43353
head -2.87275 -1.07349 3.95194
rclavicle -1.19993e-014 -1.68967e-015
rhumerus -43.0153 -28.1232 -67.7563
rradius 24.4992
rwrist 37.554
rhand 0.862382 -6.43329
rfingers 7.12502
rthumb 26.4161 -34.6127
lclavicle -1.19993e-014 -1.68967e-015
lhumerus -39.0958 41.0662 62.8506
lradius 10.6743
lwrist -58.527
lhand -7.52395 7.90463
lfingers 7.12502
lthumb 18.3668 37.0575
rfemur -35.1248 -3.72765 19.2863
rtibia 29.1361
rfoot -5.41222 8.13769
rtoes 10.7393
lfemur 9.78248 -2.2642 -17.896
ltibia 3.18055e-015
lfoot -3.21633 -14.915
ltoes 20.8776
191
root -2.17268 15.9607 32.2398 -171.184 -9.76816 -178.64
lowerback -10.6796 -3.67816 -1.71561
upperback 0.878849 -4.81961 1.60345
thorax 7.20244 -2.46689 1.83772
lowerneck 1.88281 -2.19419 -6.088
upperneck -9.37171 -2.12078 9.24454
head -2.89456 -1.0461 3.85822
rclavicle 6.16201e-014 -1.19271e-015
rhumerus -42.5386 -27.4069 -68.3857
rradius 25.1732
rwrist 36.4263
rhand 0.76172 -6.18236
rfingers 7.12502
rthumb 26.3198 -34.3762
lclavicle 6.16201e-014 -1.19271e-015
lhumerus -37.9787 39.7101 64.349
lradius 10.8276
lwrist -57.7608
lhand -7.01618 7.99641
lfingers 7.12502
lthumb 18.8553 37.1025
rfemur -35.3704 -4.02161 19.7547
rtibia 29.3666
rfoot -5.94387 8.44683
rtoes 10.1354
lfemur 9.62822 -2.5203 -17.5892
ltibia 0
lfoot -3.04848 -14.5599
ltoes 21.3085
